<svg id="Layer_1" data-name="Layer 1" xmlns="http://www.w3.org/2000/svg" xmlns:xlink="http://www.w3.org/1999/xlink" viewBox="0 0 611.88 157.68"><defs><linearGradient id="linear-gradient" x1="-13.34" y1="25.82" x2="58.04" y2="82.7" gradientUnits="userSpaceOnUse"><stop offset="0" stop-color="#bed464"/><stop offset="1" stop-color="#34bde8"/></linearGradient><linearGradient id="linear-gradient-2" x1="44.9" y1="22.28" x2="116.29" y2="79.15" xlink:href="#linear-gradient"/></defs><path d="M136.41,151.89V3.52A3.26,3.26,0,0,1,139.93,0h3.52A3.17,3.17,0,0,1,147,3.52V75.88c7-18.43,24.23-25.68,37.48-25.68,21.54,0,42.67,11.19,42.67,46.18v55.51a3.27,3.27,0,0,1-3.52,3.52h-3.73c-2.07,0-3.32-1.25-3.32-3.52V96.38c0-28.57-16.77-36.65-32.51-36.65-12.22,0-36.45,8.9-37.07,43.07v49.09a3.17,3.17,0,0,1-3.52,3.52h-3.52A3.17,3.17,0,0,1,136.41,151.89Z" style="fill:#fff"/><path d="M242,103.84c0-29.2,19.26-53.64,51.78-53.64,20.5,0,36.24,10.15,44.52,27.34V56a3.21,3.21,0,0,1,3.31-3.52h3.73A3.17,3.17,0,0,1,348.88,56v95.89a3.26,3.26,0,0,1-3.52,3.52h-3.73c-2.07,0-3.31-1.25-3.31-3.52V130.35c-8.49,17.81-24.64,27.33-44.11,27.33C262.32,157.68,242,133.87,242,103.84Zm96.51,0c0-24.85-17.4-44.11-43.7-44.11-26.92,0-42.25,20.09-42.25,44.11,0,24.64,15.95,44.52,42.46,44.52C320.1,148.36,338.53,130.14,338.53,103.84Z" style="fill:#fff"/><path d="M365.44,104.25c0-29.61,23.2-54,55.09-54,24.64,0,48,14.5,50.53,47.63.21,2.28-1,3.52-3.31,3.52H376.21c-2.48,26.51,18.23,47,46.81,47a51.32,51.32,0,0,0,34-12.21,3.17,3.17,0,0,1,4.76.41l1.45,1.66c1.45,1.66,1.45,3.52-.62,5.38-12,10.77-26.51,14.08-39.76,14.08C387.81,157.68,365.44,133.66,365.44,104.25Zm94.85-11.18c-3.73-24.23-21.74-33.55-39.55-33.55-21.13,0-38.32,13.25-43.49,33.55Z" style="fill:#fff"/><path d="M487,151.89V3.52A3.21,3.21,0,0,1,490.31,0H494a3.17,3.17,0,0,1,3.52,3.52V151.89a3.26,3.26,0,0,1-3.52,3.52h-3.73C488.24,155.41,487,154.16,487,151.89Z" style="fill:#fff"/><path d="M521.38,111.5V56a3.21,3.21,0,0,1,3.31-3.52h3.73c2.07,0,3.31,1.24,3.31,3.52v55.5c0,28.79,16.78,36.86,32.52,36.86,12.21,0,36.65-9.11,37.06-43.28V56a3.17,3.17,0,0,1,3.52-3.52h3.53A3.17,3.17,0,0,1,611.88,56v95.89a3.27,3.27,0,0,1-3.52,3.52h-3.53a3.18,3.18,0,0,1-3.52-3.52V132c-6.83,18.43-24.23,25.67-37.48,25.67C542.29,157.68,521.38,146.71,521.38,111.5Z" style="fill:#fff"/><path d="M26.3,105H14A14,14,0,0,1,0,91V14A14,14,0,0,1,14,0H26.3a14,14,0,0,1,14,14v9.28a5.3,5.3,0,1,1-10.6,0V14A3.35,3.35,0,0,0,26.3,10.6H14A3.35,3.35,0,0,0,10.6,14V91A3.35,3.35,0,0,0,14,94.38H26.3A3.35,3.35,0,0,0,29.65,91V76A14,14,0,0,1,43.59,62H59.37a3.35,3.35,0,0,0,3.35-3.34v-7a5.3,5.3,0,1,1,10.6,0v7A14,14,0,0,1,59.37,72.61H43.59A3.35,3.35,0,0,0,40.25,76V91A14,14,0,0,1,26.3,105Z" style="fill:url(#linear-gradient)"/><path d="M89,105H76.64A14,14,0,0,1,62.7,91V81.75a5.3,5.3,0,0,1,10.6,0V91a3.35,3.35,0,0,0,3.34,3.35H89A3.36,3.36,0,0,0,92.35,91V14A3.36,3.36,0,0,0,89,10.6H76.64A3.35,3.35,0,0,0,73.3,14V29A14,14,0,0,1,59.35,43H43.58a3.35,3.35,0,0,0-3.35,3.34v7a5.3,5.3,0,1,1-10.6,0v-7a14,14,0,0,1,14-14H59.35A3.35,3.35,0,0,0,62.7,29V14A14,14,0,0,1,76.64,0H89a14,14,0,0,1,14,14V91A14,14,0,0,1,89,105Z" style="fill:url(#linear-gradient-2)"/></svg>