<svg id="Layer_1" data-name="Layer 1" xmlns="http://www.w3.org/2000/svg" viewBox="0 0 611.88 157.68"><path d="M136.41,151.94V3.57A3.26,3.26,0,0,1,139.93.05h3.52A3.17,3.17,0,0,1,147,3.57V75.93c7-18.43,24.23-25.68,37.48-25.68,21.54,0,42.67,11.18,42.67,46.18v55.51a3.27,3.27,0,0,1-3.52,3.52h-3.73c-2.07,0-3.32-1.25-3.32-3.52V96.43c0-28.58-16.77-36.65-32.51-36.65-12.22,0-36.45,8.9-37.07,43.07v49.09a3.17,3.17,0,0,1-3.52,3.52h-3.52A3.17,3.17,0,0,1,136.41,151.94Z" style="fill:#fff"/><path d="M242,103.89c0-29.2,19.26-53.64,51.78-53.64,20.5,0,36.24,10.15,44.52,27.34V56.05a3.21,3.21,0,0,1,3.31-3.52h3.73a3.17,3.17,0,0,1,3.52,3.52v95.89a3.26,3.26,0,0,1-3.52,3.52h-3.73c-2.07,0-3.31-1.25-3.31-3.52V130.4c-8.49,17.81-24.64,27.33-44.11,27.33C262.32,157.73,242,133.92,242,103.89Zm96.51,0c0-24.85-17.4-44.11-43.7-44.11-26.92,0-42.25,20.09-42.25,44.11,0,24.64,15.95,44.52,42.46,44.52C320.1,148.41,338.53,130.19,338.53,103.89Z" style="fill:#fff"/><path d="M365.44,104.3c0-29.61,23.2-54,55.09-54,24.64,0,48,14.5,50.53,47.63.21,2.28-1,3.52-3.31,3.52H376.21c-2.48,26.51,18.23,47,46.81,47a51.32,51.32,0,0,0,34-12.21,3.17,3.17,0,0,1,4.76.41l1.45,1.66c1.45,1.65,1.45,3.52-.62,5.38-12,10.77-26.51,14.08-39.76,14.08C387.81,157.73,365.44,133.71,365.44,104.3Zm94.85-11.18c-3.73-24.23-21.74-33.55-39.55-33.55-21.13,0-38.32,13.25-43.49,33.55Z" style="fill:#fff"/><path d="M487,151.94V3.57A3.21,3.21,0,0,1,490.31.05H494a3.17,3.17,0,0,1,3.52,3.52V151.94a3.26,3.26,0,0,1-3.52,3.52h-3.73C488.24,155.46,487,154.21,487,151.94Z" style="fill:#fff"/><path d="M521.38,111.55V56.05a3.21,3.21,0,0,1,3.31-3.52h3.73c2.07,0,3.31,1.24,3.31,3.52v55.5c0,28.79,16.78,36.86,32.52,36.86,12.21,0,36.65-9.11,37.06-43.28V56.05a3.17,3.17,0,0,1,3.52-3.52h3.53a3.17,3.17,0,0,1,3.52,3.52v95.89a3.27,3.27,0,0,1-3.52,3.52h-3.53a3.18,3.18,0,0,1-3.52-3.52V132.05c-6.83,18.43-24.23,25.68-37.48,25.68C542.29,157.73,521.38,146.76,521.38,111.55Z" style="fill:#fff"/><path d="M26.3,105H14A14,14,0,0,1,0,91.08V14A14,14,0,0,1,14,.05H26.3a14,14,0,0,1,14,14v9.28a5.3,5.3,0,1,1-10.6,0V14a3.35,3.35,0,0,0-3.35-3.35H14A3.35,3.35,0,0,0,10.6,14V91.08A3.35,3.35,0,0,0,14,94.43H26.3a3.35,3.35,0,0,0,3.35-3.35V76a14,14,0,0,1,13.94-14H59.37a3.35,3.35,0,0,0,3.35-3.35v-7a5.3,5.3,0,1,1,10.6,0v7A14,14,0,0,1,59.37,72.66H43.59A3.35,3.35,0,0,0,40.25,76V91.08A14,14,0,0,1,26.3,105Z" style="fill:#fff"/><path d="M89,105H76.64a14,14,0,0,1-13.94-14V81.8a5.3,5.3,0,0,1,10.6,0v9.28a3.35,3.35,0,0,0,3.34,3.35H89a3.36,3.36,0,0,0,3.35-3.35V14A3.36,3.36,0,0,0,89,10.65H76.64A3.35,3.35,0,0,0,73.3,14V29.07A14,14,0,0,1,59.35,43H43.58a3.36,3.36,0,0,0-3.35,3.35v7a5.3,5.3,0,1,1-10.6,0v-7a14,14,0,0,1,14-14H59.35a3.35,3.35,0,0,0,3.35-3.34V14A14,14,0,0,1,76.64.05H89a14,14,0,0,1,14,14V91.08A14,14,0,0,1,89,105Z" style="fill:#fff"/></svg>